<svg width="447" height="397" viewBox="0 0 447 397" fill="none" xmlns="http://www.w3.org/2000/svg">
<path d="M223.5 396.45C218.423 396.445 213.552 394.425 209.963 390.831L37.0465 217.403C13.6467 193.53 0.540039 161.434 0.540039 128.007C0.540039 94.5786 13.6467 62.4829 37.0465 38.6107C60.7566 14.9029 92.9128 1.58445 126.442 1.58445C159.972 1.58445 192.128 14.9029 215.838 38.6107L223.5 45.2515L230.652 38.0998C242.376 26.2485 256.339 16.8479 271.731 10.4459C287.122 4.0436 303.635 0.767878 320.303 0.809C336.956 0.734418 353.456 3.97004 368.848 10.3279C384.237 16.686 398.21 26.0391 409.955 37.8444C433.353 61.7167 446.461 93.8123 446.461 127.24C446.461 160.668 433.353 192.763 409.955 216.637L237.037 390.065C235.326 391.983 233.245 393.536 230.918 394.634C228.593 395.73 226.07 396.348 223.5 396.45ZM126.698 38.8661C115.097 38.7815 103.595 40.9952 92.8548 45.379C82.1145 49.7629 72.3486 56.2301 64.1206 64.4078C47.5408 81.0648 38.2329 103.61 38.2329 127.113C38.2329 150.614 47.5408 173.16 64.1206 189.818L223.5 350.22L382.625 190.329C390.865 182.097 397.403 172.322 401.863 161.562C406.323 150.803 408.619 139.271 408.619 127.623C408.619 115.976 406.323 104.443 401.863 93.6839C397.403 82.9247 390.865 73.1499 382.625 64.9186C374.462 56.7256 364.743 50.2459 354.041 45.8596C343.339 41.4736 331.869 39.2696 320.303 39.3769C308.702 39.2924 297.201 41.5061 286.461 45.8898C275.72 50.2738 265.953 56.7409 257.726 64.9186L237.037 85.6073C233.382 89.0746 228.537 91.0076 223.5 91.0076C218.464 91.0076 213.618 89.0746 209.963 85.6073L189.275 64.9186C181.088 56.6487 171.342 50.0873 160.6 45.615C149.857 41.1426 138.334 38.8485 126.698 38.8661Z" fill="black"/>
</svg>
