<svg width="424" height="378" viewBox="0 0 424 378" fill="none" xmlns="http://www.w3.org/2000/svg">
<path d="M388.368 36.1593C377.237 24.849 363.98 15.8781 349.367 9.76822C334.754 3.65863 319.076 0.532293 303.25 0.571781C287.422 0.532293 271.747 3.65863 257.134 9.76822C242.521 15.8781 229.264 24.849 218.133 36.1593L211.343 43.228L204.553 36.4028C182.042 13.7782 151.512 1.06781 119.678 1.06781C87.8439 1.06781 57.3139 13.7782 34.8029 36.4028C12.5865 59.1849 0.142578 89.8143 0.142578 121.716C0.142578 153.617 12.5865 184.247 34.8029 207.028L198.975 372.534C202.385 375.959 207.007 377.882 211.828 377.882C216.646 377.882 221.271 375.959 224.68 372.534L388.853 207.028C411.078 184.171 423.479 153.454 423.39 121.494C423.3 89.5335 410.721 58.888 388.368 36.1593Z" fill="black"/>
</svg>
